<svg xmlns="http://www.w3.org/2000/svg" width="17" height="14" fill="none" xmlns:v="https://vecta.io/nano"><path d="M14.677 3.725a6.95 6.95 0 0 0 1.625-1.687 6.15 6.15 0 0 1-1.875.5c.688-.406 1.188-1.031 1.438-1.813a6.93 6.93 0 0 1-2.062.813A3.28 3.28 0 0 0 11.396.506a3.28 3.28 0 0 0-3.281 3.281 3.08 3.08 0 0 0 .094.75A9.52 9.52 0 0 1 1.427 1.1C1.146 1.568.99 2.131.99 2.756a3.23 3.23 0 0 0 1.469 2.719c-.531-.031-1.062-.156-1.5-.406V5.1c0 1.594 1.125 2.906 2.625 3.219-.25.063-.562.125-.844.125-.219 0-.406-.031-.625-.062.406 1.313 1.625 2.25 3.063 2.281-1.125.875-2.531 1.406-4.062 1.406-.281 0-.531-.031-.781-.062 1.438.938 3.156 1.469 5.031 1.469 6.031 0 9.312-4.969 9.312-9.312v-.437z" fill="#1890ff"/></svg>